<svg xmlns="http://www.w3.org/2000/svg" viewBox="0 0 1000 750" preserveAspectRatio="xMidYMid slice" role="img"><rect width="1000" height="750" fill="#F3EADA"/><rect y="560" width="1000" height="190" fill="#D9C7A8"/><rect x="60" y="120" width="250" height="180" rx="6" fill="#CFE6F0" stroke="#3B2F26" stroke-width="4"/><path d="M185 120v180M60 210h250" stroke="#3B2F26" stroke-width="4"/><g><rect x="420" y="180" width="520" height="330" rx="8" fill="#C7A97E" stroke="#8A6A45" stroke-width="5"/><path d="M420 290h520M420 400h520" stroke="#8A6A45" stroke-width="5"/><rect x="440" y="205" width="22" height="60" rx="3" fill="#C0492E"/><rect x="472" y="205" width="22" height="70" rx="3" fill="#2F80A8"/><rect x="504" y="205" width="22" height="70" rx="3" fill="#F2B705"/><rect x="536" y="205" width="22" height="60" rx="3" fill="#4E9B45"/><rect x="568" y="205" width="22" height="70" rx="3" fill="#E8792B"/><rect x="600" y="205" width="22" height="70" rx="3" fill="#C0492E"/><rect x="632" y="205" width="22" height="60" rx="3" fill="#2F80A8"/><rect x="664" y="205" width="22" height="70" rx="3" fill="#F2B705"/><rect x="696" y="205" width="22" height="70" rx="3" fill="#4E9B45"/><rect x="728" y="205" width="22" height="60" rx="3" fill="#E8792B"/><rect x="760" y="205" width="22" height="70" rx="3" fill="#C0492E"/><rect x="792" y="205" width="22" height="70" rx="3" fill="#2F80A8"/><rect x="824" y="205" width="22" height="60" rx="3" fill="#F2B705"/><rect x="856" y="205" width="22" height="70" rx="3" fill="#4E9B45"/><rect x="888" y="205" width="22" height="70" rx="3" fill="#E8792B"/><rect x="440" y="315" width="22" height="60" rx="3" fill="#C0492E"/><rect x="472" y="315" width="22" height="70" rx="3" fill="#2F80A8"/><rect x="504" y="315" width="22" height="70" rx="3" fill="#F2B705"/><rect x="536" y="315" width="22" height="60" rx="3" fill="#4E9B45"/><rect x="568" y="315" width="22" height="70" rx="3" fill="#E8792B"/><rect x="600" y="315" width="22" height="70" rx="3" fill="#C0492E"/><rect x="632" y="315" width="22" height="60" rx="3" fill="#2F80A8"/><rect x="664" y="315" width="22" height="70" rx="3" fill="#F2B705"/><rect x="696" y="315" width="22" height="70" rx="3" fill="#4E9B45"/><rect x="728" y="315" width="22" height="60" rx="3" fill="#E8792B"/><rect x="760" y="315" width="22" height="70" rx="3" fill="#C0492E"/><rect x="792" y="315" width="22" height="70" rx="3" fill="#2F80A8"/><rect x="824" y="315" width="22" height="60" rx="3" fill="#F2B705"/><rect x="856" y="315" width="22" height="70" rx="3" fill="#4E9B45"/><rect x="888" y="315" width="22" height="70" rx="3" fill="#E8792B"/><rect x="440" y="425" width="22" height="60" rx="3" fill="#C0492E"/><rect x="472" y="425" width="22" height="70" rx="3" fill="#2F80A8"/><rect x="504" y="425" width="22" height="70" rx="3" fill="#F2B705"/><rect x="536" y="425" width="22" height="60" rx="3" fill="#4E9B45"/><rect x="568" y="425" width="22" height="70" rx="3" fill="#E8792B"/><rect x="600" y="425" width="22" height="70" rx="3" fill="#C0492E"/><rect x="632" y="425" width="22" height="60" rx="3" fill="#2F80A8"/><rect x="664" y="425" width="22" height="70" rx="3" fill="#F2B705"/><rect x="696" y="425" width="22" height="70" rx="3" fill="#4E9B45"/><rect x="728" y="425" width="22" height="60" rx="3" fill="#E8792B"/><rect x="760" y="425" width="22" height="70" rx="3" fill="#C0492E"/><rect x="792" y="425" width="22" height="70" rx="3" fill="#2F80A8"/><rect x="824" y="425" width="22" height="60" rx="3" fill="#F2B705"/><rect x="856" y="425" width="22" height="70" rx="3" fill="#4E9B45"/><rect x="888" y="425" width="22" height="70" rx="3" fill="#E8792B"/></g><rect x="120" y="560" width="230" height="18" rx="5" fill="#B98E55"/><g stroke="#C0492E" stroke-width="6.8" stroke-linecap="round" fill="none"><circle cx="190" cy="480" r="9.1" fill="#C0492E" stroke="none"/><path d="M190 489.1V508.6"/><path d="M178.3 524.2L190 508.6l11.7 15.6"/><path d="M177.0 496.9h26.0"/></g><g stroke="#4E9B45" stroke-width="6.0" stroke-linecap="round" fill="none"><circle cx="290" cy="490" r="8.0" fill="#4E9B45" stroke="none"/><path d="M290 498.1V515.3"/><path d="M279.6 529.1L290 515.3l10.3 13.8"/><path d="M278.5 504.9h23.0"/></g></svg>